# File created by Blade
# Date/Time:  Thu Jan 22 19:49:01 2015
# Frame Rate: 120.000 fps
#------------------------------------------------------
:FULLY-SPECIFIED
:DEGREES
3250
root -2.100201 2.286216 -9.473566 -33.292937 -13.593335 0.191778
RightUpLeg -106.233597 11.134598 20.011211
RightLeg 93.158857 -0.000000 -0.000000
RightFoot 6.886772 -3.808143 -14.520663
RightToeBase -6.508224 -0.000000 0.000000
LeftUpLeg -58.328512 -1.585103 15.120845
LeftLeg 9.086569 -0.000000 -0.000000
LeftFoot 17.138770 -4.350248 -8.756139
LeftToeBase -8.191326 -0.000000 0.000000
Spine 36.663097 -7.748042 -3.577281
RightShoulder -15.828463 -31.184467 -16.742441
RightArm 9.394168 -33.892190 69.048391
RightForeArm -26.900956 0.000000 77.248289
RightHand -8.873077 -0.000000 14.386810
RightHandThumb1 -24.326973 -0.000000 -32.862282
LeftShoulder -23.983991 13.862041 13.652049
LeftArm 0.160061 11.514205 -72.447115
LeftForeArm 30.844089 -0.000000 96.816305
LeftHand -15.785621 -0.000000 -3.307162
LeftHandThumb1 -26.253704 0.000000 33.147579
Head 4.498419 19.066193 -0.891619
3251
root -2.098868 2.284930 -9.489210 -33.350085 -13.827910 0.212160
RightUpLeg -106.516990 10.844004 20.092522
RightLeg 95.165859 -0.000000 -0.000000
RightFoot 7.109803 -3.834177 -15.484909
RightToeBase -6.604877 -0.000000 0.000000
LeftUpLeg -58.237535 -1.236025 15.059627
LeftLeg 9.137052 -0.000000 -0.000000
LeftFoot 17.011065 -4.193418 -8.555346
LeftToeBase -8.283662 -0.000000 0.000000
Spine 36.623053 -7.328475 -3.427451
RightShoulder -15.953027 -31.227228 -16.686863
RightArm 9.282603 -33.624202 69.278323
RightForeArm -27.419714 -0.000000 77.916884
RightHand -8.850348 -0.000000 13.464424
RightHandThumb1 -24.326973 -0.000000 -32.862282
LeftShoulder -24.356810 14.939481 13.553600
LeftArm -1.077015 12.465543 -73.040528
LeftForeArm 29.958899 -0.000000 95.536853
LeftHand -16.396268 -0.000000 -4.249066
LeftHandThumb1 -26.253704 0.000000 33.147579
Head 4.724821 18.877951 -0.639412
3252
root -2.096644 2.285428 -9.502843 -33.439981 -14.051811 0.267630
RightUpLeg -106.805702 10.568256 20.120154
RightLeg 97.198219 -0.000000 -0.000000
RightFoot 7.405674 -3.815834 -16.387221
RightToeBase -6.675492 -0.000000 0.000000
LeftUpLeg -58.096807 -1.000532 15.152202
LeftLeg 9.151759 -0.000000 -0.000000
LeftFoot 16.809803 -3.926205 -8.540912
LeftToeBase -8.349905 -0.000000 0.000000
Spine 36.638423 -6.975362 -3.346460
RightShoulder -16.038832 -31.189137 -16.708447
RightArm 9.129716 -33.490050 69.529169
RightForeArm -27.779951 0.000000 78.530145
RightHand -8.884116 -0.000000 12.575047
RightHandThumb1 -24.326973 -0.000000 -32.862282
LeftShoulder -24.634755 15.481524 13.751210
LeftArm -2.957574 13.606724 -73.847851
LeftForeArm 28.913926 -0.000000 94.202433
LeftHand -16.736428 -0.000000 -4.686077
LeftHandThumb1 -26.253704 0.000000 33.147579
Head 4.877696 18.746327 -0.486959
3253
root -2.103682 2.284112 -9.518735 -33.474125 -14.294952 0.241560
RightUpLeg -107.125697 10.321003 20.165816
RightLeg 99.208186 -0.000000 -0.000000
RightFoot 7.774697 -3.817227 -16.860515
RightToeBase -6.954853 -0.000000 0.000000
LeftUpLeg -58.066542 -0.743825 15.274672
LeftLeg 9.296523 -0.000000 -0.000000
LeftFoot 16.480244 -3.652156 -8.575403
LeftToeBase -8.442892 -0.000000 0.000000
Spine 36.573550 -6.595937 -3.149823
RightShoulder -16.156692 -31.190464 -16.690099
RightArm 8.956782 -33.378697 69.763085
RightForeArm -28.068191 -0.000000 79.106534
RightHand -8.795637 -0.000000 11.719219
RightHandThumb1 -24.326973 -0.000000 -32.862282
LeftShoulder -25.012018 16.299379 13.653420
LeftArm -4.268294 14.602146 -74.431652
LeftForeArm 27.695556 -0.000000 92.888407
LeftHand -16.876584 -0.000000 -5.478171
LeftHandThumb1 -26.253704 0.000000 33.147579
Head 5.116107 18.573050 -0.320183
3254
root -2.104363 2.282102 -9.536814 -33.498018 -14.515865 0.258396
RightUpLeg -107.479772 10.056269 20.210245
RightLeg 101.191855 -0.000000 -0.000000
RightFoot 8.320587 -3.729794 -17.395039
RightToeBase -7.685185 -0.000000 0.000000
LeftUpLeg -58.033386 -0.502623 15.360019
LeftLeg 9.395539 -0.000000 -0.000000
LeftFoot 16.056531 -3.379450 -8.523292
LeftToeBase -8.439750 -0.000000 0.000000
Spine 36.441166 -6.128178 -2.962366
RightShoulder -16.306674 -31.279929 -16.613288
RightArm 8.822569 -33.291557 69.953531
RightForeArm -28.306483 -0.000000 79.663443
RightHand -8.814181 -0.000000 10.950963
RightHandThumb1 -24.326973 -0.000000 -32.862282
LeftShoulder -25.195604 17.164689 13.725624
LeftArm -5.605953 15.700204 -75.250991
LeftForeArm 26.459430 -0.000000 91.562574
LeftHand -16.890611 -0.000000 -5.426393
LeftHandThumb1 -26.253704 0.000000 33.147579
Head 5.485301 18.252005 -0.052903
